# xmcd
#
# Track frame offsets:
#	150
#	14741
#	35378
#	50957
#
# Disc length: 1013 seconds
#
# Revision: 0
# Processed by: cddbd v1.5.2PL0 Copyright (c) Steve Scherf et al.
# Submitted via: dBpowerAMP V4.0
#
DISCID=3403f304
DTITLE=Superia - Permission [CDS]
DYEAR=2000
DGENRE=Pop
TTITLE0=Permission (Radio Version)
TTITLE1=Permission (Extended Version)
TTITLE2=Permission (Forced Entry Short Mix)
TTITLE3=Permission (Forced Entry Long Mix)
EXTD=
EXTT0=
EXTT1=
EXTT2=
EXTT3=
PLAYORDER=
